<svg version="1.1" xmlns="http://www.w3.org/2000/svg" xmlns:xlink="http://www.w3.org/1999/xlink" width="201.73107" height="237.5" viewBox="0,0,201.73107,237.5"><g transform="translate(-56.13446,-48.5)"><g data-paper-data="{&quot;isPaintingLayer&quot;:true}" fill-rule="nonzero" stroke-linecap="butt" stroke-linejoin="miter" stroke-miterlimit="10" stroke-dasharray="" stroke-dashoffset="0" style="mix-blend-mode: normal"><path d="M115.5,123.5v-75h91v75z" fill="#4db749" stroke="none" stroke-width="0"/><path d="M107.5,157.5v-1h1v1z" fill="#b88c48" stroke="none" stroke-width="0"/><path d="M103.5,214.5v-93h115v93z" fill="#b88c48" stroke="none" stroke-width="0"/><path d="M135.176,57.79142l1.83794,-3.92425l17.81007,8.34142l-1.83794,3.92426z" fill="#000000" stroke="none" stroke-width="0"/><path d="M171.48184,64.36934l-1.46778,-4.07718l18.50412,-6.66148l1.46778,4.07718z" fill="#000000" stroke="none" stroke-width="0"/><path d="M193.83334,81.16666c0,6.25923 -4.70101,11.33334 -10.5,11.33334c-5.79899,0 -10.5,-5.07411 -10.5,-11.33334c0,-6.25923 4.70101,-11.33333 10.5,-11.33333c5.79899,0 10.5,5.0741 10.5,11.33333z" fill="#ffffff" stroke="#000000" stroke-width="0.5"/><path d="M150.16667,80.16666c0,6.25923 -4.70101,11.33334 -10.5,11.33334c-5.79899,0 -10.5,-5.07411 -10.5,-11.33334c0,-6.25923 4.70101,-11.33333 10.5,-11.33333c5.79899,0 10.5,5.0741 10.5,11.33333z" fill="#ffffff" stroke="#000000" stroke-width="0.5"/><path d="M104.16667,283.33333v-69h58v69z" fill="#000000" stroke="none" stroke-width="0"/><path d="M163.16667,283.33334v-69h58v69z" fill="#000000" stroke="none" stroke-width="0"/><path d="M164.5,285.33333v-12.33333h70.66667v12.33333z" fill="#000000" stroke="none" stroke-width="0"/><path d="M90.5,286v-12.33333h70.66667v12.33333z" data-paper-data="{&quot;index&quot;:null}" fill="#000000" stroke="none" stroke-width="0"/><path d="M73.79859,201.57354l-17.66413,-17.21694l46.06694,-47.26348l17.66413,17.21694z" fill="#4db749" stroke="none" stroke-width="0"/><path d="M194.13447,155.97673l17.66413,-17.21694l46.06694,47.26349l-17.66413,17.21694z" data-paper-data="{&quot;index&quot;:null}" fill="#4db749" stroke="none" stroke-width="0"/><path d="M148,84.33333c0,2.76142 -1.86548,5 -4.16667,5c-2.30119,0 -4.16667,-2.23858 -4.16667,-5c0,-2.76142 1.86548,-5 4.16667,-5c2.30119,0 4.16667,2.23858 4.16667,5z" fill="#000000" stroke="none" stroke-width="0"/><path d="M192.66667,86.16667c0,2.48528 -2.46243,4.5 -5.5,4.5c-3.03757,0 -5.5,-2.01472 -5.5,-4.5c0,-2.48528 2.46243,-4.5 5.5,-4.5c3.03757,0 5.5,2.01472 5.5,4.5z" fill="#000000" stroke="none" stroke-width="0"/></g></g></svg>