<svg version="1.1" xmlns="http://www.w3.org/2000/svg" xmlns:xlink="http://www.w3.org/1999/xlink" width="201.73108" height="237.5" viewBox="0,0,201.73108,237.5"><g transform="translate(-56.13446,-48.5)"><g data-paper-data="{&quot;isPaintingLayer&quot;:true}" fill-rule="nonzero" stroke-linecap="butt" stroke-linejoin="miter" stroke-miterlimit="10" stroke-dasharray="" stroke-dashoffset="0" style="mix-blend-mode: normal"><path d="M115.5,123.5v-75h91v75z" fill="#4db749" stroke="none" stroke-width="0"/><path d="M107.5,157.5v-1h1v1z" fill="#b88c48" stroke="none" stroke-width="0"/><path d="M103.5,214.5v-93h115v93z" fill="#b88c48" stroke="none" stroke-width="0"/><path d="M104.16667,283.33333v-69h58v69z" fill="#000000" stroke="none" stroke-width="0"/><path d="M163.16667,283.33334v-69h58v69z" fill="#000000" stroke="none" stroke-width="0"/><path d="M164.5,285.33333v-12.33333h70.66667v12.33333z" fill="#000000" stroke="none" stroke-width="0"/><path d="M90.5,286v-12.33333h70.66667v12.33333z" data-paper-data="{&quot;index&quot;:null}" fill="#000000" stroke="none" stroke-width="0"/><path d="M73.79859,201.57354l-17.66413,-17.21694l46.06694,-47.26348l17.66413,17.21694z" fill="#4db749" stroke="none" stroke-width="0"/><path d="M194.13447,155.97673l17.66413,-17.21694l46.06694,47.26349l-17.66413,17.21694z" data-paper-data="{&quot;index&quot;:null}" fill="#4db749" stroke="none" stroke-width="0"/><path d="M126.30138,61.24054l4.20745,-3.79585l16.52312,18.31478l-4.20745,3.79585z" fill="#000000" stroke="#000000" stroke-width="0.5"/><path d="M131.84217,80.22198l-4.20745,-3.79585l16.52311,-18.31478l4.20745,3.79585z" data-paper-data="{&quot;index&quot;:null}" fill="#000000" stroke="#000000" stroke-width="0.5"/><path d="M168.50884,79.55531l-4.20745,-3.79585l16.52311,-18.31478l4.20745,3.79585z" data-paper-data="{&quot;index&quot;:null}" fill="#000000" stroke="#000000" stroke-width="0.5"/><path d="M162.63472,62.9072l4.20745,-3.79585l16.52311,18.31478l-4.20745,3.79585z" fill="#000000" stroke="#000000" stroke-width="0.5"/></g></g></svg>